<?xml version="1.0" encoding="UTF-8" standalone="no"?>
<!-- Created with Inkscape (http://www.inkscape.org/) -->
<svg
   xmlns:svg="http://www.w3.org/2000/svg"
   xmlns="http://www.w3.org/2000/svg"
   version="1.0"
   width="504"
   height="126"
   id="svg1339">
  <defs
     id="defs1341" />
  <g
     id="layer1">
    <g
       transform="translate(2.20575,1.656935)"
       id="g3">
	<path
   d="M 356.41,97.209 L 387.981,1.163 L 477.627,97.209 L 356.41,97.209 z "
   style="fill:#cbeac6"
   id="path1464_5_" />

	<path
   d="M 477.628,97.209 L 477.628,1.163 L 387.982,1.163"
   style="fill:#cfecee"
   id="path1464_2_" />

	<path
   d="M 387.981,1.163 L 356.41,1.163 L 356.41,49.183 L 356.41,97.209"
   style="fill:#cfecee"
   id="path1464_4_" />

	<path
   d="M 284.029,97.549 L 315.6,1.503 L 194.383,1.503"
   style="fill:#cfecee"
   id="path1423_4_" />

	<path
   d="M 194.383,1.503 L 178.598,49.524 L 162.813,97.549 L 284.03,97.549"
   style="fill:#cbeac6"
   id="path1423" />

	<path
   d="M 16.57,49.111 L 0.785,97.137 L 122.002,97.137 L 32.355,1.09 L 16.57,49.111 z "
   style="fill:#cbeac6;stroke:#000000;stroke-width:1.13699996;stroke-miterlimit:10"
   id="path10" />

	<path
   d="M 32.355,1.09 L 32.351,97.136"
   style="fill:none;stroke:#000000;stroke-width:1.13699996;stroke-miterlimit:10"
   id="path14" />

	<path
   d="M 44.472,97.137 L 44.472,85.003 L 32.352,85.003"
   style="fill:none;stroke:#000000;stroke-width:1.13699996;stroke-miterlimit:10"
   id="path18" />

	<path
   d="M 45.129,44.24 C 45.146,44.167 45.18,44.067 45.18,43.983 C 45.18,43.81 45.012,43.81 44.973,43.81 C 44.956,43.81 44.12,43.877 44.038,43.894 C 43.748,43.91 43.492,43.944 43.185,43.965 C 42.763,44 42.64,44.017 42.64,44.322 C 42.64,44.49 42.78,44.49 43.019,44.49 C 43.849,44.49 43.872,44.646 43.872,44.818 C 43.872,44.918 43.832,45.052 43.816,45.108 L 41.349,54.984 C 41.276,55.241 41.276,55.274 41.276,55.375 C 41.276,55.747 41.566,55.82 41.738,55.82 C 42.029,55.82 42.251,55.597 42.334,55.408 L 43.104,52.32 C 43.187,51.946 43.286,51.59 43.376,51.212 C 43.56,50.499 43.56,50.482 43.888,49.985 C 44.212,49.49 44.974,48.47 46.288,48.47 C 46.973,48.47 47.206,48.976 47.206,49.663 C 47.206,50.616 46.545,52.476 46.171,53.496 C 46.014,53.909 45.931,54.131 45.931,54.438 C 45.931,55.201 46.46,55.82 47.278,55.82 C 48.861,55.82 49.456,53.312 49.456,53.206 C 49.456,53.122 49.389,53.056 49.288,53.056 C 49.133,53.056 49.116,53.106 49.033,53.396 C 48.637,54.761 48.008,55.475 47.328,55.475 C 47.156,55.475 46.884,55.458 46.884,54.912 C 46.884,54.473 47.089,53.926 47.156,53.736 C 47.463,52.917 48.231,50.905 48.231,49.918 C 48.231,48.894 47.635,48.125 46.338,48.125 C 45.369,48.125 44.518,48.587 43.817,49.473 L 45.129,44.24 z "
   id="path22" />

	<path
   d="M 61.383,104.165 C 61.399,104.092 61.433,103.992 61.433,103.908 C 61.433,103.735 61.266,103.735 61.226,103.735 C 61.21,103.735 60.598,103.785 60.291,103.82 C 60.002,103.836 59.745,103.869 59.438,103.89 C 59.032,103.925 58.909,103.942 58.909,104.247 C 58.909,104.415 59.082,104.415 59.25,104.415 C 60.124,104.415 60.124,104.571 60.124,104.743 C 60.124,104.86 59.984,105.356 59.917,105.663 L 59.505,107.302 C 59.338,107.983 58.364,111.857 58.297,112.161 C 58.213,112.585 58.213,112.874 58.213,113.099 C 58.213,114.837 59.182,115.745 60.29,115.745 C 62.267,115.745 64.31,113.204 64.31,110.729 C 64.31,109.157 63.425,108.049 62.15,108.049 C 61.265,108.049 60.462,108.783 60.14,109.123 L 61.383,104.165 z M 60.308,115.401 C 59.762,115.401 59.166,114.994 59.166,113.662 C 59.166,113.099 59.216,112.775 59.522,111.583 C 59.578,111.36 59.851,110.268 59.917,110.045 C 59.951,109.91 60.954,108.396 62.117,108.396 C 62.864,108.396 63.203,109.142 63.203,110.028 C 63.203,110.847 62.73,112.776 62.301,113.663 C 61.877,114.582 61.094,115.401 60.308,115.401 z "
   id="path26" />

	<path
   d="M 495.043,43.18 C 495.061,43.107 495.095,43.008 495.095,42.923 C 495.095,42.751 494.927,42.751 494.888,42.751 C 494.871,42.751 494.035,42.818 493.953,42.835 C 493.663,42.851 493.407,42.885 493.1,42.906 C 492.676,42.94 492.554,42.957 492.554,43.262 C 492.554,43.43 492.694,43.43 492.933,43.43 C 493.763,43.43 493.786,43.586 493.786,43.758 C 493.786,43.858 493.746,43.992 493.73,44.048 L 491.262,53.924 C 491.19,54.181 491.19,54.214 491.19,54.315 C 491.19,54.687 491.479,54.76 491.652,54.76 C 491.943,54.76 492.165,54.537 492.248,54.347 L 493.018,51.26 C 493.101,50.886 493.201,50.53 493.29,50.151 C 493.474,49.438 493.474,49.421 493.802,48.924 C 494.125,48.429 494.888,47.409 496.202,47.409 C 496.887,47.409 497.12,47.915 497.12,48.602 C 497.12,49.555 496.459,51.415 496.085,52.436 C 495.929,52.848 495.846,53.071 495.846,53.377 C 495.846,54.14 496.375,54.76 497.194,54.76 C 498.776,54.76 499.372,52.251 499.372,52.146 C 499.372,52.062 499.305,51.997 499.204,51.997 C 499.049,51.997 499.031,52.047 498.948,52.336 C 498.552,53.701 497.924,54.415 497.244,54.415 C 497.071,54.415 496.799,54.398 496.799,53.852 C 496.799,53.413 497.004,52.866 497.071,52.676 C 497.378,51.857 498.146,49.845 498.146,48.858 C 498.146,47.834 497.549,47.065 496.252,47.065 C 495.283,47.065 494.432,47.527 493.731,48.413 L 495.043,43.18 z "
   id="path1476" />

	<path
   d="M 417.22,110.24 C 417.236,110.167 417.27,110.066 417.27,109.982 C 417.27,109.81 417.103,109.81 417.063,109.81 C 417.047,109.81 416.434,109.86 416.128,109.894 C 415.838,109.91 415.581,109.944 415.275,109.965 C 414.869,109.999 414.746,110.017 414.746,110.321 C 414.746,110.489 414.919,110.489 415.087,110.489 C 415.961,110.489 415.961,110.645 415.961,110.817 C 415.961,110.934 415.821,111.431 415.754,111.738 L 415.342,113.376 C 415.175,114.057 414.202,117.931 414.135,118.235 C 414.051,118.659 414.051,118.949 414.051,119.173 C 414.051,120.911 415.02,121.819 416.128,121.819 C 418.105,121.819 420.148,119.278 420.148,116.803 C 420.148,115.232 419.262,114.123 417.988,114.123 C 417.103,114.123 416.3,114.857 415.978,115.197 L 417.22,110.24 z M 416.145,121.476 C 415.599,121.476 415.003,121.07 415.003,119.737 C 415.003,119.174 415.053,118.851 415.359,117.659 C 415.415,117.436 415.688,116.343 415.754,116.12 C 415.788,115.986 416.79,114.472 417.953,114.472 C 418.7,114.472 419.04,115.218 419.04,116.104 C 419.04,116.923 418.566,118.852 418.138,119.738 C 417.714,120.656 416.93,121.476 416.145,121.476 z "
   id="path1480" />

	<g
   transform="matrix(1.425427,0,0,1.426798,-98.83064,-251.6008)"
   id="g24">
		<path
   d="M 226.214,253.842 C 226.225,253.791 226.249,253.722 226.249,253.662 C 226.249,253.541 226.132,253.541 226.104,253.541 C 226.093,253.541 225.663,253.577 225.448,253.6 C 225.245,253.611 225.065,253.636 224.85,253.651 C 224.565,253.674 224.479,253.687 224.479,253.901 C 224.479,254.019 224.6,254.019 224.718,254.019 C 225.331,254.019 225.331,254.128 225.331,254.249 C 225.331,254.331 225.233,254.68 225.186,254.894 L 224.897,256.042 C 224.78,256.519 224.097,259.234 224.05,259.448 C 223.991,259.745 223.991,259.948 223.991,260.105 C 223.991,261.323 224.671,261.961 225.448,261.961 C 226.835,261.961 228.268,260.179 228.268,258.444 C 228.268,257.343 227.647,256.566 226.753,256.566 C 226.132,256.566 225.569,257.081 225.343,257.319 L 226.214,253.842 z M 225.46,261.717 C 225.077,261.717 224.659,261.432 224.659,260.498 C 224.659,260.104 224.694,259.877 224.909,259.041 C 224.948,258.885 225.14,258.119 225.186,257.963 C 225.21,257.869 225.913,256.807 226.729,256.807 C 227.253,256.807 227.491,257.33 227.491,257.951 C 227.491,258.525 227.159,259.877 226.858,260.498 C 226.561,261.143 226.011,261.717 225.46,261.717 z "
   id="path1439" />

	</g>

	<g
   transform="matrix(1.425427,0,0,1.426798,-98.83064,-251.6008)"
   id="g28">
		<path
   d="M 256.811,206.842 C 256.823,206.791 256.847,206.721 256.847,206.662 C 256.847,206.541 256.729,206.541 256.702,206.541 C 256.69,206.541 256.105,206.588 256.046,206.6 C 255.843,206.611 255.663,206.635 255.448,206.65 C 255.151,206.674 255.066,206.686 255.066,206.9 C 255.066,207.018 255.163,207.018 255.332,207.018 C 255.914,207.018 255.929,207.127 255.929,207.248 C 255.929,207.318 255.902,207.412 255.891,207.451 L 254.16,214.373 C 254.109,214.553 254.109,214.576 254.109,214.647 C 254.109,214.908 254.312,214.959 254.434,214.959 C 254.637,214.959 254.794,214.803 254.852,214.67 L 255.392,212.506 C 255.45,212.244 255.519,211.994 255.582,211.729 C 255.711,211.229 255.711,211.217 255.941,210.869 C 256.168,210.522 256.703,209.807 257.625,209.807 C 258.105,209.807 258.269,210.162 258.269,210.643 C 258.269,211.311 257.805,212.615 257.544,213.33 C 257.434,213.619 257.376,213.775 257.376,213.99 C 257.376,214.525 257.747,214.959 258.321,214.959 C 259.431,214.959 259.849,213.201 259.849,213.127 C 259.849,213.068 259.801,213.022 259.73,213.022 C 259.621,213.022 259.609,213.057 259.551,213.26 C 259.273,214.217 258.832,214.717 258.355,214.717 C 258.234,214.717 258.043,214.705 258.043,214.322 C 258.043,214.014 258.188,213.631 258.235,213.498 C 258.449,212.924 258.989,211.514 258.989,210.822 C 258.989,210.104 258.571,209.565 257.661,209.565 C 256.981,209.565 256.384,209.889 255.892,210.51 L 256.811,206.842 z "
   id="path30" />

	</g>

	<polygon
   points="194.383,1.503 162.813,97.549 284.029,97.549 315.6,1.503 194.383,1.503 "
   style="fill:none;stroke:#000000;stroke-width:1.13699996;stroke-miterlimit:10"
   id="polygon21" />

	
		<line
   stroke-miterlimit="10"
   x1="194.383"
   y1="1.503"
   x2="284.02899"
   y2="97.549004"
   id="line23"
   style="fill:none;stroke:#000000;stroke-width:1.13699996;stroke-miterlimit:10" />

	
		<rect
   width="121.218"
   height="96.045998"
   x="356.41"
   y="1.163"
   style="fill:none;stroke:#000000;stroke-width:1.13699996;stroke-miterlimit:10"
   id="rect25" />

	
		<line
   stroke-miterlimit="10"
   x1="284.02899"
   y1="97.549004"
   x2="284.02899"
   y2="1.503"
   id="line27"
   style="fill:none;stroke:#000000;stroke-width:1.13699996;stroke-miterlimit:10;stroke-dasharray:7.06, 4.24, 0, 0" />

	<polyline
   stroke-miterlimit="10"
   points="271.907,1.503 271.907,13.636    284.029,13.636  "
   id="polyline29"
   style="fill:none;stroke:#000000;stroke-width:1.13699996;stroke-miterlimit:10" />

	<g
   id="g31">
		
			<line
   stroke-miterlimit="10"
   x1="387.98099"
   y1="1.163"
   x2="356.41"
   y2="97.209"
   id="line33"
   style="fill:none;stroke:#000000;stroke-width:1.13699996;stroke-miterlimit:10;stroke-dasharray:7.3234, 4.3941, 0, 0" />

		
			<line
   stroke-miterlimit="10"
   x1="387.98099"
   y1="1.163"
   x2="477.62799"
   y2="97.209"
   id="line35"
   style="fill:none;stroke:#000000;stroke-width:1.13699996;stroke-miterlimit:10;stroke-dasharray:7.3234, 4.3941, 0, 0" />

	</g>

</g>
  </g>
</svg>
